<svg width="38" height="56" viewBox="0 0 38 56" fill="none" xmlns="http://www.w3.org/2000/svg">
<path d="M18.7969 28C18.7969 22.8454 22.9755 18.6667 28.1302 18.6667C33.2848 18.6667 37.4635 22.8455 37.4635 28C37.4635 33.1548 33.2847 37.3333 28.1302 37.3333C22.9754 37.3333 18.7969 33.1547 18.7969 28Z" fill="#00BCFF"/>
<path d="M0.130859 46.6667C0.130859 41.5121 4.30953 37.3334 9.46416 37.3334L14.438 34.7074L18.7975 37.3334V46.6667C18.7975 51.8214 14.6188 56 9.46416 56C4.30953 56 0.130859 51.8213 0.130859 46.6667Z" fill="#00CF7F"/>
<path d="M18.7975 0L13.7188 8.82328L18.7975 18.6666H27.9998C33.1546 18.6666 37.3331 14.4879 37.3331 9.3333C37.3331 4.17867 33.1545 0 27.9998 0H18.7975Z" fill="#FF7361"/>
<path d="M0 9.3333C0 14.4879 4.17867 18.6666 9.3333 18.6666L14.2844 20.5789L18.7975 18.6666V0H9.33319C4.17867 0 0 4.17867 0 9.3333Z" fill="#FF4D12"/>
<path d="M0.130859 28C0.130859 33.1548 4.30953 37.3333 9.46416 37.3333H18.7975V18.6666H9.46416C4.30953 18.6666 0.130859 22.8454 0.130859 28Z" fill="#B659FF"/>
</svg>
