<svg width="47" height="47" viewBox="0 0 47 47" fill="none" xmlns="http://www.w3.org/2000/svg">
<path d="M16.0533 35.1534C24.9193 35.1534 32.1067 27.9661 32.1067 19.1001C32.1067 10.2341 24.9193 3.04675 16.0533 3.04675C7.18732 3.04675 0 10.2341 0 19.1001C0 27.9661 7.18732 35.1534 16.0533 35.1534Z" fill="#FFC7C7"/>
<path d="M7.09346 9.4921C7.56037 9.4921 7.93887 9.11359 7.93887 8.64668C7.93887 8.17977 7.56037 7.80127 7.09346 7.80127C6.62655 7.80127 6.24805 8.17977 6.24805 8.64668C6.24805 9.11359 6.62655 9.4921 7.09346 9.4921Z" fill="#4C241D"/>
<path d="M32.4802 5.01212C32.9471 5.01212 33.3256 4.63361 33.3256 4.1667C33.3256 3.69979 32.9471 3.32129 32.4802 3.32129C32.0133 3.32129 31.6348 3.69979 31.6348 4.1667C31.6348 4.63361 32.0133 5.01212 32.4802 5.01212Z" fill="#4C241D"/>
<path d="M23.6831 21.6639L29.2667 24.0578L24.572 35.0084L18.9883 32.6144L23.6831 21.6639Z" fill="#9DC1E4"/>
<path d="M24.5666 35.7625C24.4655 35.7624 24.3655 35.7417 24.2727 35.7016L18.6888 33.3067C18.5068 33.2286 18.3632 33.0815 18.2895 32.8977C18.2162 32.7138 18.2188 32.5083 18.2968 32.3263L22.9941 21.3753C23.0326 21.2851 23.0885 21.2034 23.1587 21.1349C23.2288 21.0663 23.3118 21.0123 23.4029 20.9759C23.494 20.9395 23.5913 20.9214 23.6894 20.9227C23.7875 20.9239 23.8844 20.9446 23.9744 20.9833L29.558 23.3786C29.6481 23.4173 29.7298 23.4733 29.7982 23.5434C29.8667 23.6136 29.9207 23.6966 29.9571 23.7876C29.9935 23.8787 30.0116 23.976 30.0104 24.074C30.0092 24.1721 29.9887 24.2689 29.95 24.359L25.2531 35.3096C25.1955 35.444 25.0998 35.5585 24.9778 35.639C24.8557 35.7195 24.7127 35.7625 24.5666 35.7625ZM19.9635 32.2287L24.1749 34.0353L28.2835 24.457L24.0721 22.6505L19.9635 32.2287Z" fill="#4C241D"/>
<path d="M28.7302 25.3056L23.1465 22.9107L24.3439 20.1189C25.0053 18.577 26.7913 17.8632 28.3334 18.5246C29.8753 19.186 30.5891 20.972 29.9277 22.514L28.7302 25.3056Z" fill="#E66353"/>
<path d="M28.7302 26.0526C28.6292 26.0526 28.5292 26.0319 28.4364 25.9918L22.8528 23.5968C22.7627 23.5582 22.6811 23.5022 22.6126 23.4321C22.5441 23.3619 22.4901 23.2789 22.4537 23.1879C22.4173 23.0968 22.3992 22.9995 22.4004 22.9015C22.4017 22.8034 22.4222 22.7066 22.4608 22.6165L23.6581 19.8245C24.4809 17.9074 26.711 17.0161 28.6281 17.8382C29.0855 18.0329 29.4998 18.3164 29.8469 18.6723C30.194 19.0282 30.4671 19.4494 30.6505 19.9115C30.8362 20.3727 30.9287 20.8661 30.9225 21.3633C30.9163 21.8604 30.8116 22.3514 30.6144 22.8078L29.4168 25.5998C29.3592 25.7341 29.2634 25.8487 29.1414 25.9292C29.0194 26.0097 28.8764 26.0526 28.7302 26.0526ZM24.1274 22.5187L28.3388 24.3252L29.2422 22.2194C29.7403 21.0582 29.2006 19.7086 28.0399 19.2106C26.8779 18.7136 25.5287 19.2526 25.0307 20.4129L24.1274 22.5187Z" fill="#4C241D"/>
<path d="M23.1519 22.9045L28.7355 25.2984L27.6715 27.7801L22.0879 25.3861L23.1519 22.9045Z" fill="white"/>
<path d="M27.6665 28.534C27.5654 28.5342 27.4653 28.5136 27.3723 28.4736L21.7884 26.0786C21.6064 26.0005 21.4628 25.8534 21.3891 25.6696C21.3158 25.4857 21.3184 25.2802 21.3964 25.0983L22.461 22.6165C22.5392 22.4347 22.6863 22.2913 22.8701 22.2179C23.0539 22.1444 23.2593 22.1468 23.4413 22.2245L29.0249 24.6195C29.115 24.6581 29.1967 24.7141 29.2651 24.7842C29.3336 24.8544 29.3876 24.9374 29.424 25.0284C29.4604 25.1195 29.4785 25.2168 29.4773 25.3148C29.4761 25.4129 29.4556 25.5097 29.4169 25.5998L28.3527 28.0816C28.2951 28.2158 28.1994 28.3302 28.0775 28.4107C27.9555 28.4911 27.8126 28.534 27.6665 28.534ZM23.0633 25.0004L27.2747 26.807L27.7505 25.6976L23.5391 23.8911L23.0633 25.0004Z" fill="#4C241D"/>
<path d="M8.91602 21.9161L14.6517 19.9049L19.3901 33.4188L13.6545 35.43L8.91602 21.9161Z" fill="#F53E28"/>
<path d="M13.6404 36.1683C13.5284 36.1683 13.4178 36.1431 13.3167 36.0946C13.1384 36.0085 13.0014 35.8553 12.9358 35.6684L8.20021 22.1588C8.16778 22.0662 8.1539 21.9682 8.15936 21.8703C8.16482 21.7724 8.18952 21.6765 8.23204 21.5881C8.27456 21.4998 8.33407 21.4206 8.40718 21.3553C8.48028 21.2899 8.56555 21.2396 8.6581 21.2072L14.3919 19.1971C14.5789 19.132 14.784 19.1434 14.9626 19.2289C15.141 19.3149 15.278 19.4682 15.3436 19.655L20.0787 33.1647C20.1442 33.3515 20.1328 33.5567 20.047 33.7352C19.9612 33.9136 19.8081 34.0507 19.6212 34.1163L13.8876 36.1263C13.8082 36.1542 13.7246 36.1684 13.6404 36.1683ZM9.8565 22.3695L14.0981 34.47L18.4225 32.9541L14.1812 20.8536L9.8565 22.3695Z" fill="#4C241D"/>
<path d="M15.0861 21.1761L9.35244 23.1859L8.34761 20.3191C7.79265 18.7358 8.6263 17.0024 10.2096 16.4475C11.7929 15.8925 13.5263 16.7262 14.0813 18.3095L15.0861 21.1761Z" fill="#FFCE56"/>
<path d="M9.3526 23.9329C9.19779 23.9328 9.04683 23.8846 8.92059 23.795C8.79435 23.7054 8.69908 23.5787 8.64794 23.4326L7.64311 20.566C6.95263 18.5972 7.99311 16.4334 9.96263 15.7425C11.9318 15.0535 14.0956 16.0925 14.7861 18.0624L15.7913 20.929C15.8567 21.1161 15.8452 21.3214 15.7596 21.5C15.6735 21.6784 15.5203 21.8154 15.3334 21.881L9.59956 23.8907C9.52018 23.9184 9.4367 23.9327 9.3526 23.9329ZM11.2122 17.023C10.9613 17.023 10.7065 17.0643 10.4564 17.152C10.172 17.2508 9.91009 17.405 9.68573 17.6057C9.46138 17.8065 9.27906 18.0497 9.14932 18.3213C9.0182 18.5922 8.94211 18.8864 8.92544 19.1869C8.90878 19.4875 8.95189 19.7883 9.05226 20.072L9.80994 22.2344L14.1346 20.7188L13.3764 18.5565C13.0462 17.614 12.1588 17.023 11.2122 17.023Z" fill="#4C241D"/>
<path d="M9.36133 23.1908L15.0968 21.1797L15.9906 23.7288L10.2551 25.74L9.36133 23.1908Z" fill="white"/>
<path d="M10.2453 26.4811C10.1332 26.481 10.0226 26.4558 9.92157 26.4073C9.7432 26.3213 9.6062 26.168 9.54059 25.9812L8.64739 23.4328C8.58205 23.2461 8.59344 23.0408 8.67912 22.8622C8.76518 22.6838 8.91842 22.5468 9.10528 22.4812L14.8391 20.4715C15.026 20.4062 15.2311 20.4177 15.4095 20.5035C15.588 20.5893 15.725 20.7423 15.7907 20.9291L16.6839 23.4771C16.7493 23.6641 16.7379 23.8694 16.6522 24.0481C16.5662 24.2264 16.4129 24.3634 16.2261 24.4291L10.4922 26.4391C10.4121 26.4671 10.3287 26.4811 10.2453 26.4811ZM10.3035 23.6434L10.7028 24.7828L15.0275 23.2669L14.6282 22.1278L10.3035 23.6434Z" fill="#4C241D"/>
<path d="M33.4582 12.5758L39.3898 13.2747L36.7675 35.5306L30.8359 34.8317L33.4582 12.5758Z" fill="#FFCE56"/>
<path d="M36.7838 36.2739C36.7547 36.2739 36.7252 36.2724 36.6955 36.2689L30.7631 35.5715C30.5664 35.5484 30.387 35.4481 30.2642 35.2927C30.1415 35.1373 30.0855 34.9395 30.1086 34.7429L32.7259 12.4836C32.7744 12.0739 33.1489 11.7771 33.5545 11.8292L39.4869 12.5266C39.6836 12.5497 39.863 12.6499 39.9858 12.8053C40.1085 12.9607 40.1645 13.1585 40.1414 13.3552L37.5241 35.6144C37.5028 35.7959 37.4157 35.9632 37.2792 36.0848C37.1428 36.2063 36.9665 36.2736 36.7838 36.2739ZM31.6789 34.1754L36.1282 34.6986L38.5713 13.9225L34.1219 13.3992L31.6789 34.1754Z" fill="#4C241D"/>
<path d="M39.2254 14.7512L33.293 14.0536L33.7665 10.0265C33.8029 9.71784 33.9603 9.43625 34.2042 9.24365C34.4481 9.05106 34.7586 8.96322 35.0672 8.99945L38.672 9.42337C38.9806 9.45971 39.2622 9.61715 39.4548 9.86106C39.6474 10.105 39.7352 10.4154 39.699 10.7241L39.2254 14.7512Z" fill="#F53E28"/>
<path d="M39.2272 15.4979C39.1981 15.4979 39.1686 15.4964 39.1389 15.4928L33.2064 14.7955C33.0098 14.7724 32.8303 14.6721 32.7076 14.5167C32.5849 14.3613 32.5289 14.1635 32.552 13.9668L33.0255 9.9397C33.0543 9.68924 33.1324 9.44697 33.2554 9.22693C33.3785 9.00689 33.544 8.81346 33.7423 8.65786C34.144 8.34072 34.6428 8.19661 35.155 8.25821L38.7598 8.68213C39.0102 8.7109 39.2524 8.78903 39.4724 8.912C39.6924 9.03497 39.8859 9.20034 40.0416 9.39856C40.1983 9.59591 40.3143 9.82239 40.3829 10.0649C40.4515 10.3074 40.4713 10.561 40.4413 10.8112L39.9677 14.8384C39.9463 15.0199 39.8591 15.1872 39.7226 15.3087C39.5862 15.4302 39.4099 15.4976 39.2272 15.4979ZM34.1222 13.3992L38.5716 13.9224L38.958 10.6367C38.971 10.5248 38.9391 10.4123 38.8692 10.3238C38.7994 10.2354 38.6973 10.1783 38.5854 10.165L34.9807 9.74109C34.8686 9.7281 34.7558 9.75997 34.6671 9.82976C34.6232 9.86426 34.5866 9.90712 34.5594 9.95585C34.5321 10.0046 34.5148 10.0582 34.5084 10.1137L34.1222 13.3992Z" fill="#4C241D"/>
<path d="M33.2823 14.0593L39.214 14.7582L38.7772 18.4654L32.8457 17.7665L33.2823 14.0593Z" fill="white"/>
<path d="M38.7912 19.2056C38.7621 19.2056 38.7326 19.2041 38.7029 19.2006L32.7709 18.5032C32.5742 18.4801 32.3948 18.3798 32.2721 18.2244C32.1494 18.069 32.0934 17.8713 32.1164 17.6746L32.5521 13.9668C32.5634 13.8694 32.5939 13.7752 32.6418 13.6896C32.6896 13.604 32.7539 13.5287 32.831 13.4681C32.9867 13.3461 33.1841 13.2902 33.3807 13.3124L39.3131 14.0098C39.5098 14.0329 39.6892 14.1332 39.812 14.2885C39.9347 14.4439 39.9907 14.6417 39.9676 14.8384L39.5315 18.5461C39.5102 18.7276 39.4231 18.895 39.2866 19.0165C39.1502 19.138 38.9739 19.2053 38.7912 19.2056ZM33.6866 17.1071L38.1357 17.6304L38.3974 15.4057L33.948 14.8824L33.6866 17.1071Z" fill="#4C241D"/>
<path d="M23.3297 11.9841L19.2486 10.6666L15.8828 19.7513L20.7477 21.3219L23.3297 11.9841Z" fill="#BD53B5"/>
<path d="M20.7483 22.0688C20.6704 22.0688 20.593 22.0567 20.5189 22.0328L15.6539 20.4622C15.5581 20.4312 15.4694 20.3812 15.3934 20.3151C15.3174 20.249 15.2555 20.1681 15.2116 20.0775C15.1676 19.9868 15.1424 19.8882 15.1376 19.7876C15.1327 19.6869 15.1483 19.5864 15.1834 19.4919L18.5491 10.4072C18.616 10.2267 18.75 10.079 18.9232 9.99492C19.0964 9.91087 19.2954 9.89701 19.4786 9.95623L23.5597 11.2735C23.7429 11.3327 23.8961 11.4604 23.9875 11.6299C24.0789 11.7994 24.1013 11.9976 24.05 12.1832L21.4681 21.5212C21.4245 21.6786 21.3305 21.8174 21.2005 21.9163C21.0705 22.0152 20.9116 22.0688 20.7483 22.0688ZM16.8542 19.2804L20.2364 20.3724L22.4199 12.4747L19.7009 11.5972L16.8542 19.2804Z" fill="#4C241D"/>
<path d="M20.7284 21.2906L15.8491 19.7657L13.8809 25.2353L19.2317 26.9076L20.7284 21.2906Z" fill="#FC8C29"/>
<path d="M19.232 27.6542C19.1573 27.6542 19.0821 27.6428 19.0093 27.6203L13.6587 25.9479C13.5626 25.9178 13.4735 25.8687 13.3969 25.8033C13.3203 25.7379 13.2577 25.6577 13.2128 25.5675C13.168 25.4774 13.1419 25.379 13.136 25.2785C13.1302 25.1779 13.1447 25.0772 13.1788 24.9825L15.1468 19.5129C15.2119 19.3317 15.3445 19.1826 15.517 19.0969C15.6894 19.0111 15.8883 18.9953 16.0721 19.0528L20.9518 20.5779C21.1356 20.6353 21.29 20.7615 21.383 20.9301C21.4759 21.0988 21.5001 21.2968 21.4506 21.4828L19.9535 27.0996C19.9275 27.197 19.8822 27.2881 19.8201 27.3675C19.7581 27.4469 19.6807 27.5129 19.5925 27.5616C19.482 27.6223 19.358 27.6542 19.232 27.6542ZM14.848 24.7549L18.711 25.9625L19.8234 21.7897L16.3096 20.6916L14.848 24.7549Z" fill="#4C241D"/>
<path d="M22.1618 7.10054L23.2818 6.61632C23.4244 6.55464 23.5781 6.52276 23.7335 6.52264C23.8889 6.52252 24.0426 6.55417 24.1853 6.61563C24.328 6.67709 24.4567 6.76708 24.5633 6.88007C24.67 6.99305 24.7524 7.12664 24.8056 7.27264C24.8805 7.47803 25.0157 7.65599 25.1935 7.7832C25.3713 7.91041 25.5834 7.98093 25.802 7.98552C25.8313 3.51355 29.3145 0.746216 29.3145 0.746216C24.7546 1.74582 21.7786 3.53726 19.832 5.34643L20.1563 6.23664C20.452 7.04808 21.3694 7.44326 22.1618 7.10054Z" fill="#FFCE56"/>
<path d="M25.8028 8.73238C25.797 8.73238 25.7914 8.73238 25.7856 8.73201C25.0244 8.71484 24.3645 8.24238 24.1045 7.52819C24.0862 7.47783 24.0579 7.43174 24.0211 7.39279C23.9843 7.35384 23.94 7.32286 23.8907 7.30177C23.8415 7.28042 23.7883 7.26944 23.7346 7.2695C23.681 7.26957 23.6278 7.28068 23.5786 7.30214L22.4586 7.78636H22.4583C22.1771 7.90747 21.8742 7.97 21.568 7.97013C21.2619 7.97026 20.9589 7.90798 20.6776 7.7871C20.3967 7.66549 20.1435 7.488 19.9333 7.26542C19.7231 7.04284 19.5605 6.77982 19.4552 6.49238L19.1311 5.60236C19.0808 5.46442 19.0723 5.31472 19.1067 5.17198C19.141 5.02923 19.2167 4.8998 19.3243 4.79988C21.779 2.51788 25.0865 0.908622 29.1553 0.0169156C29.3201 -0.0187048 29.4921 0.00228981 29.6434 0.0765054C29.7948 0.150721 29.9167 0.27382 29.9895 0.425902C30.0619 0.578342 30.0806 0.750805 30.0424 0.915201C30.0043 1.0796 29.9116 1.22624 29.7795 1.33124C29.7489 1.35569 26.5756 3.94606 26.5492 7.99038C26.548 8.18757 26.4688 8.37626 26.329 8.51528C26.1891 8.65429 26 8.73234 25.8028 8.73238ZM20.7069 5.56521L20.8583 5.98129C20.8932 6.07808 20.9476 6.16664 21.0182 6.24142C21.0888 6.31619 21.1742 6.37558 21.2688 6.41585C21.3631 6.45652 21.4647 6.47747 21.5674 6.4774C21.6701 6.47734 21.7717 6.45626 21.866 6.41548L22.986 5.93126C23.2221 5.82967 23.4765 5.77718 23.7336 5.77699C23.9907 5.7768 24.2452 5.8289 24.4815 5.93014C24.756 6.04893 24.9984 6.23112 25.1888 6.46177C25.4951 4.65894 26.2812 3.19174 27.0475 2.1283C24.5291 2.94086 22.4047 4.09185 20.7069 5.56521Z" fill="#4C241D"/>
<path d="M20.1112 16.6973C22.5899 17.4975 25.248 16.1367 26.0483 13.6581C26.2486 13.0373 26.273 12.2439 26.2484 11.6126C26.226 11.0375 26.1179 10.4723 25.9983 9.90931C25.8637 9.27713 25.7982 8.63222 25.8028 7.9859C25.5843 7.98125 25.3722 7.91071 25.1944 7.78351C25.0166 7.65631 24.8814 7.47837 24.8064 7.27302C24.7532 7.12703 24.6708 6.99346 24.5641 6.88049C24.4574 6.76752 24.3288 6.67754 24.1861 6.61608C24.0434 6.55462 23.8897 6.52297 23.7343 6.52308C23.579 6.52318 23.4252 6.55504 23.2826 6.61669L22.1626 7.10091C21.3701 7.44344 20.4528 7.04827 20.1573 6.23701L19.833 5.3468C18.109 6.94915 17.1904 8.56512 16.7286 9.6575C16.3549 10.5415 16.1635 11.5062 16.3123 12.4543C16.6272 14.4606 18.0972 16.0471 20.1112 16.6973Z" fill="white"/>
<path d="M21.5558 17.6726C20.9872 17.6724 20.4222 17.5831 19.8812 17.4079C17.5759 16.6635 15.9256 14.8099 15.5741 12.5703C15.4145 11.5535 15.5715 10.4757 16.0404 9.36672C16.522 8.22768 17.4828 6.51091 19.3242 4.79992C19.4144 4.71601 19.524 4.65574 19.6432 4.62449C19.7624 4.59325 19.8875 4.592 20.0073 4.62085C20.127 4.64971 20.2378 4.70777 20.3297 4.78986C20.4216 4.87195 20.4917 4.97552 20.5338 5.09131L20.8579 5.98133C20.8927 6.07812 20.9471 6.16668 21.0178 6.24146C21.0884 6.31624 21.1737 6.37562 21.2684 6.41589C21.3627 6.45656 21.4644 6.47751 21.5672 6.47744C21.6699 6.47738 21.7716 6.45631 21.8659 6.41552L22.9855 5.93131C23.2217 5.82971 23.4761 5.77723 23.7332 5.77703C23.9903 5.77684 24.2447 5.82895 24.4811 5.93019C24.717 6.03227 24.9296 6.18131 25.106 6.36821C25.2825 6.55511 25.419 6.77597 25.5074 7.01733C25.5656 7.17731 25.712 7.23685 25.8195 7.23928C26.0153 7.24368 26.2015 7.32489 26.338 7.46538C26.4745 7.60587 26.5502 7.79438 26.549 7.99024C26.5441 8.58282 26.6042 9.17416 26.728 9.75368C26.8432 10.2961 26.9682 10.9291 26.9934 11.5836C27.0302 12.5147 26.9507 13.2899 26.7579 13.8874C26.0117 16.1983 23.8625 17.6726 21.5558 17.6726ZM20.3399 15.9869C22.4235 16.6598 24.6642 15.5118 25.3369 13.429C25.474 13.005 25.5309 12.387 25.5018 11.6418C25.4811 11.1051 25.3698 10.5463 25.2677 10.0647C25.1631 9.5729 25.097 9.07374 25.07 8.57171C24.8473 8.47143 24.647 8.32738 24.4811 8.14811C24.3152 7.96885 24.187 7.75805 24.1042 7.52824C24.086 7.47787 24.0576 7.43179 24.0208 7.39284C23.9841 7.35389 23.9397 7.32291 23.8905 7.30181C23.8412 7.28047 23.7881 7.26948 23.7344 7.26955C23.6807 7.26961 23.6276 7.28072 23.5784 7.30219L22.4584 7.7864C22.1771 7.90738 21.8741 7.96984 21.5679 7.96997C21.2618 7.9701 20.9587 7.90789 20.6774 7.78715C20.1807 7.57219 19.7778 7.18598 19.5421 6.69888C18.4056 7.94395 17.7654 9.12088 17.4154 9.94837C17.0566 10.7971 16.9334 11.6013 17.0489 12.339C17.3172 14.044 18.5471 15.4078 20.3399 15.9869Z" fill="#4C241D"/>
<path d="M19.1984 26.9248L13.8632 25.2024L12.7617 28.1756L18.3533 29.9809L19.1984 26.9248Z" fill="white"/>
<path d="M18.3538 30.7277C18.276 30.7277 18.1986 30.7155 18.1244 30.6917L12.5328 28.8862C12.4369 28.8553 12.3483 28.8053 12.2723 28.7391C12.1963 28.673 12.1345 28.5922 12.0906 28.5015C12.0466 28.4109 12.0214 28.3124 12.0165 28.2118C12.0116 28.1112 12.0272 28.0107 12.0622 27.9163L13.1636 24.9431C13.2305 24.7625 13.3645 24.6148 13.5376 24.5307C13.7108 24.4466 13.9098 24.4327 14.093 24.4917L19.4283 26.2141C19.6115 26.2733 19.7648 26.4009 19.8561 26.5704C19.9475 26.7399 19.9699 26.9381 19.9187 27.1237L19.0736 30.18C19.03 30.3374 18.936 30.4762 18.806 30.5751C18.676 30.6741 18.5172 30.7276 18.3538 30.7277ZM13.7331 27.7044L17.842 29.0307L18.2887 27.4153L14.3155 26.1327L13.7331 27.7044ZM22.6632 15.197C22.4956 15.1971 22.3328 15.1408 22.2011 15.0372C22.0694 14.9335 21.9763 14.7886 21.9369 14.6257C21.8975 14.4627 21.9141 14.2913 21.9839 14.1389C22.0538 13.9866 22.1729 13.8621 22.322 13.7856C22.5721 13.6583 22.79 13.476 22.9596 13.2524C23.1292 13.0288 23.246 12.7698 23.3013 12.4946C23.3839 12.0914 23.7793 11.8325 24.1821 11.9121C24.2782 11.9316 24.3695 11.9699 24.4508 12.0248C24.5321 12.0797 24.6018 12.15 24.6559 12.2318C24.71 12.3136 24.7475 12.4053 24.7661 12.5015C24.7848 12.5978 24.7843 12.6968 24.7647 12.7929C24.6652 13.2878 24.455 13.7537 24.1499 14.1558C23.8448 14.5579 23.4527 14.8858 23.003 15.1149C22.8939 15.1709 22.7777 15.197 22.6632 15.197Z" fill="#4C241D"/>
<path d="M39.5735 28.4333H7.4668V39.7407C7.4668 42.9805 10.093 45.6067 13.3328 45.6067H33.7075C36.9473 45.6067 39.5735 42.9805 39.5735 39.7407V28.4333Z" fill="#E2E2E2"/>
<path d="M33.7079 46.3533H13.3336C9.6874 46.3533 6.7207 43.3866 6.7207 39.7405V28.4333C6.7207 28.2353 6.79937 28.0454 6.9394 27.9053C7.07942 27.7653 7.26934 27.6866 7.46737 27.6866H39.574C39.7721 27.6866 39.962 27.7653 40.102 27.9053C40.242 28.0454 40.3207 28.2353 40.3207 28.4333V39.7405C40.3207 43.3866 37.354 46.3533 33.7079 46.3533ZM8.21404 29.18V39.7405C8.21404 42.5634 10.5106 44.86 13.3336 44.86H33.7079C36.5308 44.86 38.8274 42.5634 38.8274 39.7405V29.18H8.21404Z" fill="#4C241D"/>
<path d="M43.3233 39.6334H39.5728C39.3748 39.6334 39.1849 39.5548 39.0449 39.4147C38.9048 39.2747 38.8262 39.0848 38.8262 38.8868V30.6734C38.8262 30.4754 38.9048 30.2855 39.0449 30.1455C39.1849 30.0054 39.3748 29.9268 39.5728 29.9268H43.3233C44.9606 29.9268 46.2928 31.259 46.2928 32.8963V36.6639C46.2928 38.3012 44.9606 39.6334 43.3233 39.6334ZM40.3195 38.1401H43.3233C44.1374 38.1401 44.7995 37.478 44.7995 36.6639V32.8963C44.7995 32.0822 44.1374 31.4201 43.3233 31.4201H40.3195V38.1401Z" fill="#4C241D"/>
<path d="M23.5193 41.5C26.1998 41.5 28.3727 39.3271 28.3727 36.6467C28.3727 33.9662 26.1998 31.7933 23.5193 31.7933C20.8389 31.7933 18.666 33.9662 18.666 36.6467C18.666 39.3271 20.8389 41.5 23.5193 41.5Z" fill="#FFCE56"/>
<path d="M23.5199 42.2468C20.4319 42.2468 17.9199 39.7348 17.9199 36.6468C17.9199 33.5587 20.4319 31.0468 23.5199 31.0468C26.6079 31.0468 29.1199 33.5587 29.1199 36.6468C29.1199 39.7348 26.6079 42.2468 23.5199 42.2468ZM23.5199 32.5401C21.2555 32.5401 19.4133 34.3823 19.4133 36.6468C19.4133 38.9112 21.2555 40.7534 23.5199 40.7534C25.7844 40.7534 27.6266 38.9112 27.6266 36.6468C27.6266 34.3823 25.7844 32.5401 23.5199 32.5401Z" fill="#4C241D"/>
<path d="M21.7598 38.3124C22.2707 38.6865 22.8877 38.8878 23.521 38.8867C24.2484 38.8867 24.915 38.6267 25.433 38.1946" fill="#FFCE56"/>
<path d="M23.5197 39.6333C22.7221 39.6333 21.9607 39.3851 21.318 38.9154C20.9852 38.6718 20.9122 38.2048 21.1554 37.872C21.3986 37.5391 21.8661 37.4661 22.1989 37.7094C23.0053 38.2992 24.1861 38.2621 24.9537 37.6211C25.1062 37.4986 25.3007 37.4408 25.4953 37.4602C25.69 37.4796 25.8692 37.5746 25.9946 37.7248C26.1199 37.875 26.1813 38.0683 26.1655 38.2633C26.1498 38.4583 26.0582 38.6393 25.9104 38.7674C25.2393 39.3267 24.3934 39.6331 23.5197 39.6333Z" fill="#4C241D"/>
<path d="M21.6529 36.6467C22.0653 36.6467 22.3996 36.3124 22.3996 35.9C22.3996 35.4876 22.0653 35.1533 21.6529 35.1533C21.2405 35.1533 20.9062 35.4876 20.9062 35.9C20.9062 36.3124 21.2405 36.6467 21.6529 36.6467Z" fill="#4C241D"/>
<path d="M25.3853 36.6467C25.7977 36.6467 26.132 36.3124 26.132 35.9C26.132 35.4876 25.7977 35.1533 25.3853 35.1533C24.973 35.1533 24.6387 35.4876 24.6387 35.9C24.6387 36.3124 24.973 36.6467 25.3853 36.6467Z" fill="#4C241D"/>
</svg>
